<svg width="60" height="30" viewBox="0 0 60 30" fill="none" xmlns="http://www.w3.org/2000/svg">
<path d="M24.9219 29.3516H18.7891L11.1523 19.6055H4.82422V29.3516H0V0.953125H14.0625C16.3802 0.953125 18.4049 1.70833 20.1367 3.21875C21.1393 4.07812 21.9336 5.11979 22.5195 6.34375C23.1055 7.55469 23.3984 8.86328 23.3984 10.2695C23.3984 11.6888 23.1055 13.0104 22.5195 14.2344C21.9336 15.4453 21.1458 16.4805 20.1562 17.3398C19.2578 18.1211 18.1901 18.7201 16.9531 19.1367L24.9219 29.3516ZM14.0625 14.7812C15.2995 14.7812 16.3607 14.3451 17.2461 13.4727C18.1315 12.5872 18.5742 11.5195 18.5742 10.2695C18.5742 9.03255 18.1315 7.97786 17.2461 7.10547C16.3607 6.22005 15.2995 5.77734 14.0625 5.77734H4.82422V14.7812H14.0625ZM48.6133 29.3516H30.0391V0.933594H48.6133V5.75781H34.8633V10.6797H48.6133V15.5039H34.8633V24.5273H48.6133V29.3516ZM56.7188 29.3516C55.9505 29.3516 55.293 29.0781 54.7461 28.5312C54.2122 27.9844 53.9453 27.3268 53.9453 26.5586C53.9453 25.8034 54.2122 25.1523 54.7461 24.6055C55.293 24.0586 55.9505 23.7852 56.7188 23.7852C57.487 23.7852 58.1445 24.0586 58.6914 24.6055C59.2383 25.1523 59.5117 25.8034 59.5117 26.5586C59.5117 27.3268 59.2383 27.9844 58.6914 28.5312C58.1445 29.0781 57.487 29.3516 56.7188 29.3516Z" fill="#FFE600"/>
</svg>
