<svg width="16" height="15" viewBox="0 0 16 15" fill="none" xmlns="http://www.w3.org/2000/svg">
<path d="M4.32812 0C3.77584 0 3.32812 0.447715 3.32812 1C3.32812 1.55228 3.77584 2 4.32812 2V0ZM4.32812 2H14.781V0H4.32812V2Z" fill="#FFE500"/>
<path d="M13.0151 11.4529C13.0151 12.0052 13.4629 12.4529 14.0151 12.4529C14.5674 12.4529 15.0151 12.0052 15.0151 11.4529L13.0151 11.4529ZM15.0151 11.4529L15.0151 1.00002L13.0151 1.00002L13.0151 11.4529L15.0151 11.4529Z" fill="#FFE500"/>
<path d="M0.299251 13.239C-0.0947137 13.6261 -0.100317 14.2592 0.286737 14.6532C0.673789 15.0472 1.30693 15.0528 1.70089 14.6657L0.299251 13.239ZM13.2518 0.513714L0.299251 13.239L1.70089 14.6657L14.6535 1.94039L13.2518 0.513714Z" fill="#FFE500"/>
</svg>
